<svg xml:space="preserve" viewBox="0 0 100 100" y="0" x="0" xmlns="http://www.w3.org/2000/svg" id="Layer_1" version="1.1" preserveAspectRatio="xMidYMid" width="193" height="193" xmlns:xlink="http://www.w3.org/1999/xlink" style="margin-top:0px;margin-right:0px;margin-bottom:0px;margin-left:0px;display:block;shape-rendering:auto;background-position-x:0%;background-position-y:0%;background-size:auto;background-origin:padding-box;background-clip:border-box;background:scroll rgba(0, 0, 0, 0) none  repeat;width:193px;height:193px;;animation:none"><g class="ldl-scale" style="transform-origin:50px 50px;transform:matrix(0.58, 0, 0, 0.58, 0, 0);;animation:none"><g class="ldl-ani"><g class="ldl-layer"><g class="ldl-ani" style="transform-box:view-box;transform-origin:50px 50px;transform:matrix(1.03, 0, 0, 1.03, 0, 0);animation-duration:5s;animation-timing-function:linear;animation-delay:-2.77778s;animation-iteration-count:infinite;animation-direction:normal;animation-fill-mode:forwards;animation-play-state:paused;animation-name:animate;animation-timeline:auto;animation-range-start:normal;animation-range-end:normal;;animation:none"><circle fill="#f4e6c8" r="42.5" cy="50" cx="50" style="stroke-width:0.72px;fill:rgb(244, 230, 200);;animation:none"></circle></g></g>
<g class="ldl-layer"><g class="ldl-ani" style="transform-box:view-box;transform-origin:50px 50px;transform:matrix(1.0209, 0, 0, 1.0209, 0, 0);animation-duration:5s;animation-timing-function:linear;animation-delay:-3.05556s;animation-iteration-count:infinite;animation-direction:normal;animation-fill-mode:forwards;animation-play-state:paused;animation-name:animate;animation-timeline:auto;animation-range-start:normal;animation-range-end:normal;;animation:none"><path fill="#f47e5f" d="M73.6 28.8c0 11.7-9.5 21.2-21.2 21.2-.8 0-1.6 0-2.4-.1 8.5-1.2 15.1-10.2 15.1-21.1S58.5 8.8 50 7.6c.8-.1 1.6-.1 2.4-.1 11.7 0 21.2 9.5 21.2 21.3z" style="stroke-width:0.72px;fill:rgb(244, 126, 95);;animation:none"></path></g></g>
<g class="ldl-layer"><g class="ldl-ani" style="transform-box:view-box;transform-origin:50px 50px;transform:matrix(1.00333, 0, 0, 1.00333, 0, 0);animation-duration:5s;animation-timing-function:linear;animation-delay:-3.33333s;animation-iteration-count:infinite;animation-direction:normal;animation-fill-mode:forwards;animation-play-state:paused;animation-name:animate;animation-timeline:auto;animation-range-start:normal;animation-range-end:normal;;animation:none"><path fill="#f7b26a" d="M81.7 21.6c-.6-.6-1.2-1.1-1.8-1.6 5.2 6.8 3.5 17.9-4.2 25.6S56.9 55 50.1 49.8c.5.6 1 1.2 1.6 1.8 8.3 8.3 21.8 8.3 30.1 0s8.2-21.7-.1-30z" style="stroke-width:0.72px;fill:rgb(247, 178, 106);;animation:none"></path></g></g>
<g class="ldl-layer"><g class="ldl-ani" style="transform-box:view-box;transform-origin:50px 50px;transform:matrix(0.979453, 0, 0, 0.979453, 0, 0);animation-duration:5s;animation-timing-function:linear;animation-delay:-3.61111s;animation-iteration-count:infinite;animation-direction:normal;animation-fill-mode:forwards;animation-play-state:paused;animation-name:animate;animation-timeline:auto;animation-range-start:normal;animation-range-end:normal;;animation:none"><path fill="#f47e5f" d="M92.5 52.4c0-.8 0-1.6-.1-2.4-1.2 8.5-10.2 15.1-21.1 15.1s-20-6.6-21.2-15.1c-.1.8-.1 1.6-.1 2.4 0 11.7 9.5 21.2 21.2 21.2s21.3-9.5 21.3-21.2z" style="stroke-width:0.72px;fill:rgb(244, 126, 95);;animation:none"></path></g></g>
<g class="ldl-layer"><g class="ldl-ani" style="transform-box:view-box;transform-origin:50px 50px;transform:matrix(0.96082, 0, 0, 0.96082, 0, 0);animation-duration:5s;animation-timing-function:linear;animation-delay:-3.88889s;animation-iteration-count:infinite;animation-direction:normal;animation-fill-mode:forwards;animation-play-state:paused;animation-name:animate;animation-timeline:auto;animation-range-start:normal;animation-range-end:normal;;animation:none"><path fill="#f7b26a" d="M78.4 81.7c.6-.6 1.1-1.2 1.6-1.8-6.8 5.2-17.9 3.5-25.6-4.2S45 56.9 50.2 50.1c-.6.5-1.2 1-1.8 1.6-8.4 8.3-8.4 21.7-.1 30s21.8 8.3 30.1 0z" style="stroke-width:0.72px;fill:rgb(247, 178, 106);;animation:none"></path></g></g>
<g class="ldl-layer"><g class="ldl-ani" style="transform-box:view-box;transform-origin:50px 50px;transform:matrix(0.935119, 0, 0, 0.935119, 0, 0);animation-duration:5s;animation-timing-function:linear;animation-delay:-4.16667s;animation-iteration-count:infinite;animation-direction:normal;animation-fill-mode:forwards;animation-play-state:paused;animation-name:animate;animation-timeline:auto;animation-range-start:normal;animation-range-end:normal;;animation:none"><path fill="#f47e5f" d="M47.6 92.5c.8 0 1.6 0 2.4-.1-8.5-1.2-15.1-10.2-15.1-21.1s6.6-20 15.1-21.2c-.8-.1-1.6-.1-2.4-.1-11.7 0-21.2 9.5-21.2 21.2s9.5 21.3 21.2 21.3z" style="stroke-width:0.72px;fill:rgb(244, 126, 95);;animation:none"></path></g></g>
<g class="ldl-layer"><g class="ldl-ani" style="transform-box:view-box;transform-origin:50px 50px;transform:matrix(0.918326, 0, 0, 0.918326, 0, 0);animation-duration:5s;animation-timing-function:linear;animation-delay:-4.44444s;animation-iteration-count:infinite;animation-direction:normal;animation-fill-mode:forwards;animation-play-state:paused;animation-name:animate;animation-timeline:auto;animation-range-start:normal;animation-range-end:normal;;animation:none"><path fill="#f7b26a" d="M18.3 78.4c.6.6 1.2 1.1 1.8 1.6-5.2-6.8-3.5-17.9 4.2-25.6s18.8-9.4 25.6-4.2c-.5-.6-1-1.2-1.6-1.8-8.3-8.4-21.7-8.4-30-.1s-8.3 21.8 0 30.1z" style="stroke-width:0.72px;fill:rgb(247, 178, 106);;animation:none"></path></g></g>
<g class="ldl-layer"><g class="ldl-ani" style="transform-box:view-box;transform-origin:50px 50px;transform:matrix(0.91, 0, 0, 0.91, 0, 0);animation-duration:5s;animation-timing-function:linear;animation-delay:-4.72222s;animation-iteration-count:infinite;animation-direction:normal;animation-fill-mode:forwards;animation-play-state:paused;animation-name:animate;animation-timeline:auto;animation-range-start:normal;animation-range-end:normal;;animation:none"><path fill="#f47e5f" d="M7.5 47.6c0 .8 0 1.6.1 2.4 1.2-8.5 10.2-15.1 21.1-15.1s20 6.6 21.2 15.1c.1-.8.1-1.6.1-2.4 0-11.7-9.5-21.2-21.2-21.2S7.5 35.9 7.5 47.6z" style="stroke-width:0.72px;fill:rgb(244, 126, 95);;animation:none"></path></g></g>
<g class="ldl-layer"><g class="ldl-ani" style="transform-box:view-box;transform-origin:50px 50px;transform:matrix(0.91, 0, 0, 0.91, 0, 0);animation-duration:5s;animation-timing-function:linear;animation-delay:-5s;animation-iteration-count:infinite;animation-direction:normal;animation-fill-mode:forwards;animation-play-state:paused;animation-name:animate;animation-timeline:auto;animation-range-start:normal;animation-range-end:normal;;animation:none"><path fill="#f7b26a" d="M21.6 18.3c-.6.6-1.1 1.2-1.6 1.8 6.8-5.2 17.9-3.5 25.6 4.2s9.4 18.8 4.2 25.6c.6-.5 1.2-1 1.8-1.6 8.3-8.3 8.3-21.8 0-30.1s-21.7-8.2-30 .1z" style="stroke-width:0.72px;fill:rgb(247, 178, 106);;animation:none"></path></g></g>
<metadata xmlns:d="https://loading.io/stock/"></metadata></g></g>
<STYLE type="text/css">@keyframes animate { 0.00% {transform: translate(0.00px,0.00px) rotate(0.00deg) scale(0.91, 0.91) skew(0deg, 0.00deg) ;opacity: 1.00;}4.00% {transform: translate(0.00px,0.00px) rotate(0.00deg) scale(0.91, 0.91) ;}8.00% {animation-timing-function: cubic-bezier(0.69,0.60,0.35,0.27);transform: translate(0.00px,0.00px) rotate(0.00deg) scale(0.91, 0.91) ;}14.00% {transform: translate(0.00px,0.00px) rotate(0.00deg) scale(0.93, 0.93) ;}18.00% {transform: translate(0.00px,0.00px) rotate(0.00deg) scale(0.94, 0.94) ;}22.00% {animation-timing-function: cubic-bezier(0.67,0.66,0.34,0.33);transform: translate(0.00px,0.00px) rotate(0.00deg) scale(0.96, 0.96) ;}26.00% {transform: translate(0.00px,0.00px) rotate(0.00deg) scale(0.97, 0.97) ;}30.00% {transform: translate(0.00px,0.00px) rotate(0.00deg) scale(0.99, 0.99) ;}34.00% {animation-timing-function: cubic-bezier(0.65,0.71,0.32,0.38);transform: translate(0.00px,0.00px) rotate(0.00deg) scale(1.01, 1.01) ;}40.00% {animation-timing-function: cubic-bezier(0.64,0.74,0.31,0.41);transform: translate(0.00px,0.00px) rotate(0.00deg) scale(1.02, 1.02) ;}46.00% {animation-timing-function: cubic-bezier(0.60,0.91,0.23,0.63);transform: translate(0.00px,0.00px) rotate(0.00deg) scale(1.03, 1.03) ;}50.00% {transform: translate(0.00px,0.00px) rotate(0.00deg) scale(1.03, 1.03) ;}54.00% {transform: translate(0.00px,0.00px) rotate(0.00deg) scale(1.03, 1.03) ;}58.00% {animation-timing-function: cubic-bezier(0.69,0.60,0.35,0.27);transform: translate(0.00px,0.00px) rotate(0.00deg) scale(1.03, 1.03) ;}64.00% {transform: translate(0.00px,0.00px) rotate(0.00deg) scale(1.01, 1.01) ;}68.00% {transform: translate(0.00px,0.00px) rotate(0.00deg) scale(1.00, 1.00) ;}72.00% {animation-timing-function: cubic-bezier(0.67,0.66,0.34,0.33);transform: translate(0.00px,0.00px) rotate(0.00deg) scale(0.98, 0.98) ;}76.00% {animation-timing-function: cubic-bezier(0.66,0.68,0.33,0.35);transform: translate(0.00px,0.00px) rotate(0.00deg) scale(0.97, 0.97) ;}82.00% {animation-timing-function: cubic-bezier(0.65,0.71,0.32,0.38);transform: translate(0.00px,0.00px) rotate(0.00deg) scale(0.94, 0.94) ;}88.00% {animation-timing-function: cubic-bezier(0.65,0.73,0.31,0.40);transform: translate(0.00px,0.00px) rotate(0.00deg) scale(0.92, 0.92) ;}94.00% {animation-timing-function: cubic-bezier(0.63,0.80,0.28,0.48);transform: translate(0.00px,0.00px) rotate(0.00deg) scale(0.91, 0.91) ;}100.00% {animation-timing-function: cubic-bezier(0.63,0.80,0.28,0.48);transform: translate(0.00px,0.00px) rotate(0.00deg) scale(0.91, 0.91) ;} }</STYLE><!-- [ldio] generated by https://loading.io --></svg>